<?xml version="1.0" encoding="UTF-8"?>
<svg xmlns="http://www.w3.org/2000/svg" width="256" height="256" viewBox="0 0 256 256" role="img" aria-label="Eirlylu logo">
  <defs>
    <linearGradient id="g" x1="0" y1="0" x2="1" y2="1">
      <stop offset="0" stop-color="#78AAFF" stop-opacity="0.95"/>
      <stop offset="1" stop-color="#96EBBE" stop-opacity="0.75"/>
    </linearGradient>
    <filter id="s" x="-20%" y="-20%" width="140%" height="140%">
      <feDropShadow dx="0" dy="6" stdDeviation="10" flood-color="#000000" flood-opacity="0.35"/>
    </filter>
  </defs>
  <rect x="20" y="20" width="216" height="216" rx="40" fill="#0B0C10" stroke="rgba(255,255,255,0.14)" stroke-width="2"/>
  <g filter="url(#s)">
    <path d="M128 54 C92 70, 74 98, 74 128 C74 167, 105 196, 128 202 C151 196, 182 167, 182 128 C182 98, 164 70, 128 54 Z"
          fill="url(#g)"/>
    <path d="M128 78 C110 88, 100 104, 100 124 C100 148, 118 168, 128 172 C138 168, 156 148, 156 124 C156 104, 146 88, 128 78 Z"
          fill="#0B0C10" opacity="0.55"/>
    <circle cx="128" cy="122" r="10" fill="rgba(255,255,255,0.85)"/>
  </g>
</svg>
